<svg width="400" height="140" viewBox="0 0 400 140" fill="none" xmlns="http://www.w3.org/2000/svg">
<path fill-rule="evenodd" clip-rule="evenodd" d="M72 16L22.9497 65.0502L18 70L22.9497 74.9497L72 124V114.101L27.8995 70L72 25.8995V16ZM92 113.38L135.38 70L92 26.6203V16.7208L140.329 65.0502L145.279 70L140.329 74.9497L92 123.279V113.38Z" fill="#152D4F"/>
<path fill-rule="evenodd" clip-rule="evenodd" d="M54.5 54.9264L42.5355 66.8909L39 70.4264L42.5355 73.9619L77.8909 109.317L81.4264 112.853L84.9619 109.317L96.9264 97.3528L93.3909 93.8173L81.4264 105.782L46.0711 70.4264L58.0355 58.4619L54.5 54.9264ZM103.997 83.2107L116.782 70.4264L81.4264 35.0711L68.6421 47.8553L65.1066 44.3198L77.8909 31.5355L81.4264 28L84.9619 31.5355L120.317 66.8909L123.853 70.4264L120.317 73.9619L107.533 86.7462L103.997 83.2107Z" fill="#02D3A6"/>
<circle cx="66.5" cy="47.5" r="7.5" fill="#02D3A6"/>
<circle cx="66.5" cy="47.5" r="5" fill="#F8F9FA"/>
<circle cx="94.5" cy="95.5" r="7.5" fill="#02D3A6"/>
<circle cx="94.5" cy="95.5" r="5" fill="#F8F9FA"/>
<path d="M173.28 86V70.496H159.36V86H154.8V52.928H159.36V66.752H173.28V52.928H177.84V86H173.28ZM204.225 80.096C204.225 81.12 204.401 81.888 204.753 82.4C205.105 82.88 205.633 83.248 206.337 83.504L205.329 86.576C204.017 86.416 202.961 86.048 202.161 85.472C201.361 84.896 200.769 84 200.385 82.784C198.689 85.312 196.177 86.576 192.849 86.576C190.353 86.576 188.385 85.872 186.945 84.464C185.505 83.056 184.785 81.216 184.785 78.944C184.785 76.256 185.745 74.192 187.665 72.752C189.617 71.312 192.369 70.592 195.921 70.592H199.809V68.72C199.809 66.928 199.377 65.648 198.513 64.88C197.649 64.112 196.321 63.728 194.529 63.728C192.673 63.728 190.401 64.176 187.713 65.072L186.609 61.856C189.745 60.704 192.657 60.128 195.345 60.128C198.321 60.128 200.545 60.864 202.017 62.336C203.489 63.776 204.225 65.84 204.225 68.528V80.096ZM193.857 83.264C196.385 83.264 198.369 81.952 199.809 79.328V73.52H196.497C191.825 73.52 189.489 75.248 189.489 78.704C189.489 80.208 189.857 81.344 190.593 82.112C191.329 82.88 192.417 83.264 193.857 83.264ZM222.719 86.144C221.727 89.088 220.335 91.408 218.543 93.104C216.783 94.832 214.255 95.872 210.959 96.224L210.479 92.768C212.143 92.48 213.471 92.064 214.463 91.52C215.455 90.976 216.239 90.272 216.815 89.408C217.423 88.576 217.983 87.44 218.495 86H217.007L208.511 60.704H213.215L219.983 82.784L226.607 60.704H231.167L222.719 86.144ZM248.12 60.128C250.424 60.128 252.216 60.816 253.496 62.192C254.808 63.568 255.464 65.456 255.464 67.856V86H251.048V68.48C251.048 66.688 250.712 65.424 250.04 64.688C249.368 63.952 248.376 63.584 247.064 63.584C245.72 63.584 244.536 63.968 243.512 64.736C242.488 65.504 241.528 66.608 240.632 68.048V86H236.216V60.704H240.008L240.392 64.448C241.288 63.104 242.392 62.048 243.704 61.28C245.048 60.512 246.52 60.128 248.12 60.128ZM283.445 72.608C283.445 73.344 283.413 74.096 283.349 74.864H267.221C267.413 77.648 268.117 79.696 269.333 81.008C270.549 82.32 272.117 82.976 274.037 82.976C275.253 82.976 276.373 82.8 277.397 82.448C278.421 82.096 279.493 81.536 280.613 80.768L282.533 83.408C279.845 85.52 276.901 86.576 273.701 86.576C270.181 86.576 267.429 85.424 265.445 83.12C263.493 80.816 262.517 77.648 262.517 73.616C262.517 70.992 262.933 68.672 263.765 66.656C264.629 64.608 265.845 63.008 267.413 61.856C269.013 60.704 270.885 60.128 273.029 60.128C276.389 60.128 278.965 61.232 280.757 63.44C282.549 65.648 283.445 68.704 283.445 72.608ZM279.077 71.312C279.077 68.816 278.581 66.912 277.589 65.6C276.597 64.288 275.109 63.632 273.125 63.632C269.509 63.632 267.541 66.288 267.221 71.6H279.077V71.312ZM297.362 60.128C299.09 60.128 300.642 60.368 302.018 60.848C303.394 61.328 304.706 62.048 305.954 63.008L304.082 65.792C302.93 65.056 301.826 64.512 300.77 64.16C299.746 63.808 298.658 63.632 297.506 63.632C296.066 63.632 294.93 63.936 294.098 64.544C293.266 65.12 292.85 65.92 292.85 66.944C292.85 67.968 293.234 68.768 294.002 69.344C294.802 69.92 296.226 70.48 298.273 71.024C301.09 71.728 303.186 72.688 304.562 73.904C305.97 75.12 306.674 76.784 306.674 78.896C306.674 81.392 305.698 83.296 303.746 84.608C301.826 85.92 299.474 86.576 296.69 86.576C292.85 86.576 289.666 85.472 287.138 83.264L289.49 80.576C291.634 82.208 294.002 83.024 296.594 83.024C298.258 83.024 299.57 82.688 300.53 82.016C301.522 81.312 302.018 80.368 302.018 79.184C302.018 78.32 301.842 77.632 301.49 77.12C301.138 76.576 300.53 76.112 299.666 75.728C298.802 75.312 297.538 74.88 295.874 74.432C293.186 73.728 291.234 72.784 290.018 71.6C288.834 70.416 288.242 68.912 288.242 67.088C288.242 65.776 288.626 64.592 289.394 63.536C290.194 62.448 291.282 61.616 292.658 61.04C294.066 60.432 295.634 60.128 297.362 60.128Z" fill="#02D3A6"/>
<path d="M333.336 52.928L332.856 56.816H323.688V86H319.128V56.816H309.72V52.928H333.336ZM354.836 72.608C354.836 73.344 354.804 74.096 354.74 74.864H338.612C338.804 77.648 339.508 79.696 340.724 81.008C341.94 82.32 343.508 82.976 345.428 82.976C346.644 82.976 347.764 82.8 348.788 82.448C349.812 82.096 350.884 81.536 352.004 80.768L353.924 83.408C351.236 85.52 348.292 86.576 345.092 86.576C341.572 86.576 338.82 85.424 336.836 83.12C334.884 80.816 333.908 77.648 333.908 73.616C333.908 70.992 334.324 68.672 335.156 66.656C336.02 64.608 337.236 63.008 338.804 61.856C340.404 60.704 342.276 60.128 344.42 60.128C347.78 60.128 350.356 61.232 352.148 63.44C353.94 65.648 354.836 68.704 354.836 72.608ZM350.468 71.312C350.468 68.816 349.972 66.912 348.98 65.6C347.988 64.288 346.5 63.632 344.516 63.632C340.9 63.632 338.932 66.288 338.612 71.6H350.468V71.312ZM371.104 60.128C372.608 60.128 373.984 60.352 375.232 60.8C376.48 61.216 377.68 61.904 378.832 62.864L376.72 65.648C375.824 65.008 374.944 64.544 374.08 64.256C373.248 63.936 372.32 63.776 371.296 63.776C369.248 63.776 367.648 64.592 366.496 66.224C365.376 67.856 364.816 70.272 364.816 73.472C364.816 76.672 365.376 79.04 366.496 80.576C367.616 82.08 369.216 82.832 371.296 82.832C372.288 82.832 373.2 82.688 374.032 82.4C374.864 82.08 375.792 81.584 376.816 80.912L378.832 83.792C376.528 85.648 373.952 86.576 371.104 86.576C367.68 86.576 364.976 85.424 362.992 83.12C361.04 80.816 360.064 77.632 360.064 73.568C360.064 70.88 360.512 68.528 361.408 66.512C362.304 64.496 363.568 62.928 365.2 61.808C366.864 60.688 368.832 60.128 371.104 60.128Z" fill="#152D4F"/>
</svg>
