<svg width="140" height="140" viewBox="0 0 140 140" fill="none" xmlns="http://www.w3.org/2000/svg">
<path fill-rule="evenodd" clip-rule="evenodd" d="M60 16L10.9497 65.0502L6 70L10.9497 74.9497L60 124V114.101L15.8995 70L60 25.8995V16ZM80 113.38L123.38 70L80 26.6203V16.7208L128.329 65.0502L133.279 70L128.329 74.9497L80 123.279V113.38Z" fill="#152D4F"/>
<path fill-rule="evenodd" clip-rule="evenodd" d="M42.5 54.9264L30.5355 66.8909L27 70.4264L30.5355 73.9619L65.8909 109.317L69.4264 112.853L72.9619 109.317L84.9264 97.3528L81.3909 93.8173L69.4264 105.782L34.0711 70.4264L46.0355 58.4619L42.5 54.9264ZM91.9975 83.2107L104.782 70.4264L69.4264 35.0711L56.6421 47.8553L53.1066 44.3198L65.8909 31.5355L69.4264 28L72.9619 31.5355L108.317 66.8909L111.853 70.4264L108.317 73.9619L95.533 86.7462L91.9975 83.2107Z" fill="#02D3A6"/>
<circle cx="54.5" cy="47.5" r="7.5" fill="#02D3A6"/>
<circle cx="54.5" cy="47.5" r="5" fill="#F8F9FA"/>
<circle cx="82.5" cy="95.5" r="7.5" fill="#02D3A6"/>
<circle cx="82.5" cy="95.5" r="5" fill="#F8F9FA"/>
</svg>
